
        <svg xmlns="http://www.w3.org/2000/svg" xmlns:xlink="http://www.w3.org/1999/xlink" version="1.1" width="3187.5" height="1160.2269455866585" viewBox="0 0 3187.5 1160.2269455866585">
			
			<g transform="scale(9.375) translate(10, 10)">
				<defs id="SvgjsDefs11892"/><g id="SvgjsG11893" featureKey="symbolFeature-0" transform="matrix(1.2778021553357493,0,0,1.2778021553357493,-8.48540493777646,-6.0056698863566025)" fill="#000"><g xmlns="http://www.w3.org/2000/svg"><path d="M80.4,28.2c1.8-2.8,2.4-6.1,1.7-9.3c-0.7-3.2-2.6-6-5.4-7.8c-2.8-1.8-6.1-2.4-9.3-1.7c-2.3,0.5-4.3,1.6-5.9,3.1   c-0.3,0.2-0.6,0.4-0.8,0.7c-0.1,0.1-0.1,0.2-0.2,0.3c-0.3,0.4-0.6,0.8-0.9,1.2c-1.8,2.8-2.4,6.1-1.7,9.3c0,0,0,0,0,0c0,0,0,0,0,0   c0.7,3.2,2.6,6,5.4,7.8c2,1.3,4.4,2,6.7,2c0.9,0,1.7-0.1,2.6-0.3C75.8,32.9,78.6,31,80.4,28.2z M71.8,29.7c-3.7,0.8-7.3-1-9.1-4.1   h4.9c1.1,0,2-0.9,2-2s-0.9-2-2-2h-6c-0.1-4,2.7-7.5,6.7-8.4c0.6-0.1,1.2-0.2,1.7-0.2c1.9,0,3.7,0.6,5.1,1.8h-3.2c-1.1,0-2,0.9-2,2   s0.9,2,2,2h5.8c0.1,0,0.2,0,0.2,0c0.1,0.3,0.2,0.6,0.3,0.9c0.2,1,0.2,2,0.1,3h-1.8c-1.1,0-2,0.9-2,2s0.9,2,2,2h0.1   C75.4,28.2,73.7,29.2,71.8,29.7z"/><path d="M37.2,26c-14.6,0-26.4,11.8-26.4,26.4c0,5.5,1.7,10.7,4.7,15c0.1,0.1,0.1,0.2,0.2,0.2c4.8,6.8,12.7,11.2,21.6,11.2   c14.6,0,26.4-11.8,26.4-26.4S51.8,26,37.2,26z M59,46.9c-0.2,0.5-0.4,1-0.5,1.4c-0.1,0.3-0.2,0.6-0.3,0.8c0,0.1-0.1,0.2-0.1,0.2   c-0.1-0.1-0.3-0.2-0.4-0.3c-0.7-0.5-1.7-1.3-3.1-1.3c-0.4,0-0.7,0.1-1,0.2c0-0.6,0-1.1,0-1.7c-0.1-1.9-1-2.8-1.8-3.2   c-0.7-0.4-1.4-0.4-1.9-0.4c-0.5,0-1.1,0-1.6-0.1l4.5-6.4C55.7,39.1,57.9,42.8,59,46.9z M14.9,50.2c1.1-0.5,2.3-0.8,3.6-1   c-1.8,2.3-2.7,5.9-0.8,8.6c0.1,0.1,0.2,0.3,0.3,0.4c0,0,0,0.1,0.1,0.1l-0.1,0.1c-0.5,0.7-1,1.5-1.6,2.5c-1.1-2.6-1.7-5.5-1.7-8.5   C14.8,51.6,14.8,50.9,14.9,50.2z M19.2,65.7c0.2-2.2,1.2-3.7,2.1-5l0.1-0.2c0.3-0.5,0.8-1.3,0.8-2.3c0-1.2-0.7-2-1.1-2.5   c-0.1-0.1-0.1-0.2-0.2-0.3c-0.8-1.1-0.2-2.8,0.8-4l0.1-0.1c0.5-0.6,1.4-1.6,1.3-3.1c-0.1-1.3-1-2.5-2.4-3c-0.9-0.3-1.8-0.3-2.6-0.2   c-0.8,0.1-1.5,0.3-2.3,0.5C18.7,36.6,27.2,30,37.2,30c0,0,0.1,0,0.1,0c0.3,0.8,0.8,1.6,1.3,2.2c0.4,0.6,0.8,1.2,0.8,1.5   c0,0.7-2,1.3-3,1.7l-0.1,0c-1.9,0.7-3.7,1.7-5.3,2.9C30,39,28.9,40,28.4,41.5c-0.8,2.5,0.7,4.7,1.8,6.3l0.1,0.2   c0.8,1.2,1,2.2,0.8,2.5c-0.2,0.2-0.9,0.4-3.1-0.3c-1.1-0.4-2.4,0-3.2,0.9c-1,1.1-1.3,2.8-0.8,4.3c0.6,1.6,2.4,3.5,7.3,3.9   c0.1,0.1,0.2,0.3,0.2,0.5c-0.1,0.2-0.6,0.7-1,1c-0.8,0.7-1.8,1.6-2.2,2.9c-0.2,0.7,0,1.6,0.5,2.1c2.5,2.3,5.9,1,8.6-0.1   c0.9-0.3,2.3-0.9,3.1-1c-0.2,1.1-0.6,2.2-1.2,3.1l-0.2,0.3c-0.5,0.7-1.1,1.5-1.2,2.6c-0.2,1.4,0.3,2.8,1.3,3.9   c-0.7,0.1-1.3,0.1-2,0.1C29.8,74.8,23.3,71.2,19.2,65.7z M45.8,73.1c-2.3,0-2.8-0.4-3.3-0.9c-0.4-0.3-0.5-0.6-0.5-0.8   c0-0.2,0.3-0.6,0.6-1l0.3-0.4c1.3-1.9,2-4.1,2-6.4c0-0.4-0.1-0.8-0.3-1.1c-2-3.1-5.6-1.7-8.3-0.7c-0.5,0.2-1.2,0.4-1.8,0.6   c0.6-0.8,1.2-1.7,1.1-3c-0.1-2-1.6-4.2-3.9-4.3c-1.9-0.1-2.9-0.5-3.4-0.8c1.8,0.4,4.3,0.6,5.9-1.3c1.5-1.8,1.4-4.5-0.5-7.3   l-0.1-0.2c-0.7-1.1-1.5-2.2-1.3-3c0.1-0.4,0.7-0.9,1.1-1.2c1.3-1,2.7-1.8,4.2-2.3l0.1,0c2.1-0.8,5.4-1.9,5.6-5.2   c0.1-1.4-0.4-2.5-1-3.4c2.6,0.6,5.1,1.7,7.3,3.1l-4.7,6.6c-1.7,2.4-1.2,4.3-0.1,5.2c0.6,0.6,1.3,0.8,1.9,0.9   c0.9,0.2,1.8,0.3,2.8,0.3c0.1,1.1-0.1,2.2-0.4,3.3c-0.2,0.7-0.1,1.4,0.4,1.9c1,1.2,2.8,1.4,4.4,0.5c0.2-0.1,0.3-0.2,0.5-0.3   c0.1-0.1,0.2-0.2,0.3-0.2c0.1,0.1,0.3,0.2,0.5,0.4c0.7,0.5,1.6,1.3,3,1.3c0,0,0,0,0,0c0.5,0,1.1-0.1,1.5-0.4   C59.3,62.1,53.7,69.8,45.8,73.1z"/><path d="M7.4,15.2C7.4,15.2,7.3,15.2,7.4,15.2c-0.9,0.7-1,2-0.3,2.8c0.4,0.5,1,0.7,1.5,0.7c0.5,0,0.9-0.2,1.3-0.5   c0.9-0.7,1-1.9,0.3-2.8C9.5,14.6,8.2,14.5,7.4,15.2z"/><path d="M21,11.7c0.2,0,0.5,0,0.7-0.1l0.1,0c1-0.4,1.6-1.5,1.2-2.6c-0.4-1-1.5-1.6-2.6-1.2l-0.1,0.1c-1,0.4-1.5,1.6-1.1,2.6   C19.4,11.2,20.2,11.7,21,11.7z"/><path d="M48.8,10.3c0.2,0,0.4,0.1,0.5,0.1c0.9,0,1.7-0.6,1.9-1.5c0.3-1.1-0.3-2.2-1.4-2.5l-0.1,0c-1.1-0.3-2.2,0.3-2.5,1.4   c-0.3,1.1,0.3,2.2,1.4,2.5L48.8,10.3z"/><path d="M42.1,9c0.1,0,0.1,0,0.2,0c1,0,1.9-0.8,2-1.8c0.1-1.1-0.7-2.1-1.8-2.2l-0.1,0c-1.1-0.1-2.1,0.7-2.2,1.8   c-0.1,1.1,0.7,2.1,1.8,2.2L42.1,9z"/><path d="M14.5,14.7c0.4,0,0.7-0.1,1-0.3c1-0.5,1.3-1.8,0.8-2.7c-0.5-1-1.8-1.3-2.7-0.8L13.5,11c-1,0.6-1.2,1.8-0.7,2.7   C13.2,14.4,13.8,14.7,14.5,14.7z"/><path d="M56.1,12.8c0.8,0,1.5-0.4,1.8-1.2c0.5-1,0-2.2-1-2.7l-0.1-0.1c-1-0.5-2.1,0-2.6,1c-0.5,1,0,2.2,1.1,2.7   C55.5,12.7,55.8,12.8,56.1,12.8z"/><path d="M27.9,9.6c0.1,0,0.3,0,0.4,0c1.1-0.2,1.8-1.3,1.6-2.3c-0.2-1.1-1.3-1.8-2.3-1.6l-0.2,0c-1.1,0.2-1.7,1.3-1.5,2.4   C26.1,9,27,9.6,27.9,9.6z"/><path d="M35.1,8.7l0.1,0c1.1-0.1,2-1,1.9-2.1c-0.1-1.1-1-1.9-2.1-1.9l-0.1,0c-1.1,0.1-2,1-1.9,2.1C33,7.9,33.9,8.7,35.1,8.7   C35,8.7,35.1,8.7,35.1,8.7z"/><path d="M76,76.5c-0.9-0.6-2.2-0.4-2.8,0.5l-0.1,0.1c-0.6,0.9-0.4,2.2,0.5,2.8c0.3,0.2,0.7,0.4,1.1,0.4c0.6,0,1.3-0.3,1.6-0.9   l0.1-0.1C77.2,78.4,76.9,77.2,76,76.5z"/><path d="M79.4,70.1c-1-0.5-2.2,0-2.7,1c-0.5,1-0.1,2.2,0.9,2.7c0.3,0.1,0.6,0.2,0.9,0.2c0.7,0,1.4-0.4,1.8-1.1l0.1-0.2   C80.8,71.7,80.4,70.5,79.4,70.1z"/><path d="M81.7,63.1c-1.1-0.3-2.2,0.3-2.5,1.4l0,0.1c-0.3,1.1,0.3,2.2,1.4,2.5c0.2,0.1,0.4,0.1,0.6,0.1c0.9,0,1.7-0.6,1.9-1.5l0-0.1   C83.4,64.5,82.7,63.4,81.7,63.1z"/><path d="M82.8,55.9c-1.1-0.1-2.1,0.7-2.2,1.8l0,0.1c-0.1,1.1,0.7,2.1,1.8,2.2c0.1,0,0.2,0,0.2,0c1,0,1.9-0.7,2-1.8l0-0.1   C84.7,57,83.9,56,82.8,55.9z"/><path d="M82.8,48.6c-1.1,0.1-2,1-1.9,2.1c0,1.1,0.9,2,2,2c0,0,0,0,0,0c1.1,0,2-0.9,2-2l0-0.2C84.8,49.4,83.8,48.5,82.8,48.6z"/><path d="M81.9,35.7l0-0.1c-0.4-1-1.5-1.6-2.6-1.2c-1,0.4-1.6,1.5-1.2,2.6l0,0.1c0.3,0.8,1.1,1.3,1.9,1.3c0.2,0,0.5,0,0.7-0.1   C81.8,37.9,82.3,36.7,81.9,35.7z"/><path d="M68.8,82.5L68.8,82.5c-0.8,0.9-0.8,2.1,0,2.9c0.4,0.4,0.9,0.5,1.4,0.5c0.5,0,1.1-0.2,1.5-0.6c0,0,0.1-0.1,0.1-0.1   c0.8-0.8,0.7-2.1-0.1-2.8C70.9,81.6,69.6,81.7,68.8,82.5z"/><path d="M80.1,43.8c0.2,0.9,1,1.6,2,1.6c0.1,0,0.3,0,0.4,0c1.1-0.2,1.8-1.3,1.5-2.4l0-0.1c-0.2-1.1-1.3-1.8-2.3-1.6   c-1.1,0.2-1.8,1.3-1.6,2.3L80.1,43.8z"/></g></g><g id="SvgjsG11894" featureKey="nameFeature-0" transform="matrix(0.905493471213284,0,0,0.905493471213284,118.62364907748086,18.256890042494057)" fill="#000"><path d="M15.56 10.760000000000002 c3.2533 0 6.0132 0.94672 8.28 2.84 s3.52 4.3068 3.76 7.24 l-6 0 c-0.37332 -1.6 -1.0933 -2.8 -2.16 -3.6 s-2.36 -1.2 -3.88 -1.2 c-2.4533 0 -4.36 0.88668 -5.72 2.66 s-2.04 4.1532 -2.04 7.14 c0 2.9333 0.69332 5.26 2.08 6.98 s3.28 2.58 5.68 2.58 c4.1068 0 6.3732 -2.0533 6.8 -6.16 l-6.32 0 l0 -4.68 l12 0 l0 15.44 l-4 0 l-0.64 -3.24 c-2 2.6133 -4.6132 3.92 -7.84 3.92 c-4.2132 0 -7.6068 -1.3867 -10.18 -4.16 s-3.86 -6.3332 -3.86 -10.68 c0 -4.4268 1.28 -8.0468 3.84 -10.86 s5.96 -4.22 10.2 -4.22 z M48.422 18.76 c1.9467 0 3.6801 0.45328 5.2 1.36 s2.7133 2.22 3.58 3.94 s1.3 3.7 1.3 5.94 c0 0.21332 -0.01332 0.56 -0.04 1.04 l-14.92 0 c0.05332 1.6533 0.48664 2.94 1.3 3.86 s2.06 1.38 3.74 1.38 c1.04 0 1.9933 -0.26 2.86 -0.78 s1.42 -1.1533 1.66 -1.9 l5 0 c-1.4667 4.64 -4.6932 6.96 -9.68 6.96 c-1.8933 -0.02668 -3.6466 -0.44 -5.26 -1.24 s-2.9 -2.0467 -3.86 -3.74 s-1.44 -3.66 -1.44 -5.9 c0 -2.1067 0.48668 -4.0268 1.46 -5.76 s2.2666 -3.0266 3.88 -3.88 s3.3533 -1.28 5.22 -1.28 z M52.782 27.439999999999998 c-0.26668 -1.5467 -0.76 -2.6667 -1.48 -3.36 s-1.7467 -1.04 -3.08 -1.04 c-1.3867 0 -2.48 0.39332 -3.28 1.18 s-1.2667 1.86 -1.4 3.22 l9.24 0 z M78.204 18.76 c3.3067 0 5.92 1.0067 7.84 3.02 s2.88 4.6468 2.88 7.9 c0 3.28 -0.98 5.9132 -2.94 7.9 s-4.5532 2.98 -7.78 2.98 c-3.28 0 -5.88 -1.0067 -7.8 -3.02 s-2.88 -4.6332 -2.88 -7.86 c0 -3.3333 0.98 -5.9868 2.94 -7.96 s4.54 -2.96 7.74 -2.96 z M73.204 29.68 c0 2.1067 0.42668 3.7333 1.28 4.88 s2.0933 1.72 3.72 1.72 c1.68 0 2.94 -0.58668 3.78 -1.76 s1.26 -2.7866 1.26 -4.84 c0 -2.1333 -0.43332 -3.7733 -1.3 -4.92 s-2.1267 -1.72 -3.78 -1.72 c-1.6 0 -2.8267 0.57332 -3.68 1.72 s-1.28 2.7867 -1.28 4.92 z M119.62599999999999 11.440000000000001 l0 5.28 l-13.8 0 l0 6.6 l11.96 0 l0 4.88 l-11.96 0 l0 11.8 l-6.28 0 l0 -28.56 l20.08 0 z M141.088 18.76 c0.48 0 0.89336 0.06668 1.24 0.2 l0 5.28 c-0.61332 -0.13332 -1.2933 -0.2 -2.04 -0.2 c-3.7333 0 -5.6 2.2133 -5.6 6.64 l0 9.32 l-5.68 0 l0 -20.68 l5.4 0 l0 3.84 l0.08 0 c0.56 -1.3333 1.4467 -2.4 2.66 -3.2 s2.5266 -1.2 3.94 -1.2 z M160.23 18.76 c3.3067 0 5.92 1.0067 7.84 3.02 s2.88 4.6468 2.88 7.9 c0 3.28 -0.98 5.9132 -2.94 7.9 s-4.5532 2.98 -7.78 2.98 c-3.28 0 -5.88 -1.0067 -7.8 -3.02 s-2.88 -4.6332 -2.88 -7.86 c0 -3.3333 0.98 -5.9868 2.94 -7.96 s4.54 -2.96 7.74 -2.96 z M155.23 29.68 c0 2.1067 0.42668 3.7333 1.28 4.88 s2.0933 1.72 3.72 1.72 c1.68 0 2.94 -0.58668 3.78 -1.76 s1.26 -2.7866 1.26 -4.84 c0 -2.1333 -0.43332 -3.7733 -1.3 -4.92 s-2.1267 -1.72 -3.78 -1.72 c-1.6 0 -2.8267 0.57332 -3.68 1.72 s-1.28 2.7867 -1.28 4.92 z M192.852 18.76 c2.64 0 4.5532 0.66676 5.74 2.0001 s1.78 3.4533 1.78 6.36 l0 12.88 l-5.68 0 l0 -11.72 c0 -1.7067 -0.27332 -2.9734 -0.82 -3.8 s-1.4867 -1.24 -2.82 -1.24 c-1.5467 0 -2.6667 0.46668 -3.36 1.4 s-1.04 2.4666 -1.04 4.6 l0 10.76 l-5.68 0 l0 -20.68 l5.4 0 l0 2.88 l0.12 0 c1.4133 -2.2933 3.5333 -3.44 6.36 -3.44 z M218.23400000000004 13.120000000000001 l0.000039062 6.2 l4.16 0 l0 3.8 l-4.16 0 l0 10.24 c0 0.96 0.16 1.6 0.48 1.92 s0.96 0.48 1.92 0.48 c0.69332 0 1.28 -0.05332 1.76 -0.16 l0 4.44 c-0.8 0.13332 -1.92 0.2 -3.36 0.2 c-2.1867 0 -3.8134 -0.37332 -4.88 -1.12 s-1.6 -2.04 -1.6 -3.88 l0 -12.12 l-3.44 0 l0 -3.8 l3.44 0 l0 -6.2 l5.68 0 z"/></g><g id="SvgjsG11895" featureKey="sloganFeature-0" transform="matrix(0.6,0,0,0.6,131.9999997138977,73.58000011444092)" fill="#000"><path d="M3.68 14.32 l0.58 0 l0 8.64 l-0.58 0 l0 -3.64 c-0.4 0.42 -0.94 0.68 -1.56 0.68 c-1.16 0 -2.12 -0.96 -2.12 -2.14 l0 -3.54 l0.58 0 l0 3.54 c0 0.86 0.7 1.54 1.54 1.54 c0.86 0 1.56 -0.68 1.56 -1.54 l0 -3.54 z M3.22 24.06 c0.3 -0.3 0.46 -0.7 0.46 -1.1 l0.58 0 c0 0.54 -0.22 1.08 -0.62 1.5 c-0.84 0.84 -2.18 0.84 -3.02 0 l0.42 -0.4 c0.6 0.6 1.58 0.6 2.18 0 z M12.0395 14.9 c-1.24 0 -2.26 1 -2.26 2.26 c0 1.24 1.02 2.24 2.26 2.24 s2.26 -1 2.26 -2.24 c0 -1.26 -1.02 -2.26 -2.26 -2.26 z M12.0395 14.32 c1.56 0 2.84 1.26 2.84 2.84 c0 1.56 -1.28 2.84 -2.84 2.84 c-1.58 0 -2.84 -1.28 -2.84 -2.84 c0 -1.58 1.26 -2.84 2.84 -2.84 z M24.919000000000004 14.32 l0.58 0 l0 2.84 c0 1.56 -1.28 2.84 -2.84 2.84 c-1.58 0 -2.84 -1.28 -2.84 -2.84 l0 -2.84 l0.58 0 l0 2.84 c0 1.24 1.02 2.24 2.26 2.24 s2.26 -1 2.26 -2.24 l0 -2.84 z M33.27850000000001 14.32 l0 0.58 c-1.24 0 -2.26 1 -2.26 2.26 l0 2.84 l-0.58 0 l0 -5.68 l0.58 0 l0 1.1 c0.52 -0.68 1.34 -1.1 2.26 -1.1 z M47.3175 20.06 l0 -0.58 c0.54 0 0.96 -0.42 0.96 -0.96 c0 -0.58 -0.44 -1 -0.92 -1.46 c-0.5 -0.48 -1 -0.96 -1 -1.64 c0 -0.66 0.52 -1.18 1.18 -1.18 l0 0.58 c-0.34 0 -0.6 0.26 -0.6 0.6 c0 0.44 0.4 0.82 0.82 1.22 c0.52 0.5 1.1 1.06 1.1 1.88 c0 0.86 -0.68 1.54 -1.54 1.54 z M56.637 14.32 c1.56 0 2.84 1.26 2.84 2.84 c0 1.56 -1.28 2.84 -2.84 2.84 c-0.92 0 -1.74 -0.44 -2.26 -1.12 l0 6.2 l-0.58 0 l0 -10.76 l0.58 0 l0 1.1 c0.52 -0.68 1.34 -1.1 2.26 -1.1 z M56.637 19.4 c1.24 0 2.26 -1 2.26 -2.24 c0 -1.26 -1.02 -2.26 -2.26 -2.26 s-2.26 1 -2.26 2.26 c0 1.24 1.02 2.24 2.26 2.24 z M69.5165 14.32 l0.58 0 l0 5.68 l-0.58 0 l0 -1.12 c-0.52 0.68 -1.34 1.12 -2.26 1.12 c-1.58 0 -2.84 -1.28 -2.84 -2.84 c0 -1.58 1.26 -2.84 2.84 -2.84 c0.92 0 1.74 0.42 2.26 1.1 l0 -1.1 z M67.2565 19.4 c1.24 0 2.26 -1 2.26 -2.24 c0 -1.26 -1.02 -2.26 -2.26 -2.26 s-2.26 1 -2.26 2.26 c0 1.24 1.02 2.24 2.26 2.24 z M78.456 19.4 l0 0.6 c-1.56 0 -2.84 -1.28 -2.84 -2.84 l0 -2.26 l-0.58 0 l0 -0.58 l0.58 0 l0 -8.62 l0.58 0 l0 8.62 l2.26 0 l0 0.58 l-2.26 0 l0 2.26 c0 1.24 1.02 2.24 2.26 2.24 z M83.6955 20 l0 -5.68 l0.58 0 l0 5.68 l-0.58 0 z M83.9755 12 c0.34 0 0.6 0.26 0.6 0.58 s-0.26 0.58 -0.6 0.58 c-0.32 0 -0.58 -0.26 -0.58 -0.58 s0.26 -0.58 0.58 -0.58 z M94.615 14.32 l0.58 0 l0 5.68 l-0.58 0 l0 -1.12 c-0.52 0.68 -1.34 1.12 -2.26 1.12 c-1.58 0 -2.84 -1.28 -2.84 -2.84 c0 -1.58 1.26 -2.84 2.84 -2.84 c0.92 0 1.74 0.42 2.26 1.1 l0 -1.1 z M92.355 19.4 c1.24 0 2.26 -1 2.26 -2.24 c0 -1.26 -1.02 -2.26 -2.26 -2.26 s-2.26 1 -2.26 2.26 c0 1.24 1.02 2.24 2.26 2.24 z M100.1345 20 l0 -14.3 l0.58 0 l0 14.3 l-0.58 0 z M113.7935 17.16 c0 -1.58 1.26 -2.84 2.84 -2.84 c0.92 0 1.74 0.44 2.26 1.12 l0 -9.74 l0.58 0 l0 14.3 l-0.58 0 l0 -1.14 c-0.52 0.68 -1.34 1.14 -2.26 1.14 c-1.58 0 -2.84 -1.28 -2.84 -2.84 z M114.37349999999999 17.16 c0 1.24 1.02 2.24 2.26 2.24 s2.26 -1 2.26 -2.24 c0 -1.26 -1.02 -2.26 -2.26 -2.26 s-2.26 1 -2.26 2.26 z M129.513 14.32 l0.58 0 l0 5.68 l-0.58 0 l0 -1.12 c-0.52 0.68 -1.34 1.12 -2.26 1.12 c-1.58 0 -2.84 -1.28 -2.84 -2.84 c0 -1.58 1.26 -2.84 2.84 -2.84 c0.92 0 1.74 0.42 2.26 1.1 l0 -1.1 z M127.253 19.4 c1.24 0 2.26 -1 2.26 -2.24 c0 -1.26 -1.02 -2.26 -2.26 -2.26 s-2.26 1 -2.26 2.26 c0 1.24 1.02 2.24 2.26 2.24 z M138.4525 19.4 l0 0.6 c-1.56 0 -2.84 -1.28 -2.84 -2.84 l0 -2.26 l-0.58 0 l0 -0.58 l0.58 0 l0 -8.62 l0.58 0 l0 8.62 l2.26 0 l0 0.58 l-2.26 0 l0 2.26 c0 1.24 1.02 2.24 2.26 2.24 z M147.69199999999998 14.32 l0.58 0 l0 5.68 l-0.58 0 l0 -1.12 c-0.52 0.68 -1.34 1.12 -2.26 1.12 c-1.58 0 -2.84 -1.28 -2.84 -2.84 c0 -1.58 1.26 -2.84 2.84 -2.84 c0.92 0 1.74 0.42 2.26 1.1 l0 -1.1 z M145.432 19.4 c1.24 0 2.26 -1 2.26 -2.24 c0 -1.26 -1.02 -2.26 -2.26 -2.26 s-2.26 1 -2.26 2.26 c0 1.24 1.02 2.24 2.26 2.24 z M164.19099999999997 14.9 c-1.24 0 -2.26 1 -2.26 2.26 c0 1.24 1.02 2.24 2.26 2.24 s2.26 -1 2.26 -2.24 c0 -1.26 -1.02 -2.26 -2.26 -2.26 z M164.19099999999997 14.32 c1.56 0 2.84 1.26 2.84 2.84 c0 1.56 -1.28 2.84 -2.84 2.84 c-1.58 0 -2.84 -1.28 -2.84 -2.84 c0 -1.58 1.26 -2.84 2.84 -2.84 z M177.65049999999997 17.16 l0 2.84 l-0.58 0 l0 -2.84 c0 -1.26 -1.02 -2.26 -2.26 -2.26 s-2.26 1 -2.26 2.26 l0 2.84 l-0.58 0 l0 -5.68 l0.58 0 l0 1.1 c0.52 -0.68 1.34 -1.1 2.26 -1.1 c1.56 0 2.84 1.26 2.84 2.84 z M194.14949999999993 19.4 l0 0.6 c-1.56 0 -2.84 -1.28 -2.84 -2.84 l0 -2.26 l-0.58 0 l0 -0.58 l0.58 0 l0 -8.62 l0.58 0 l0 8.62 l2.26 0 l0 0.58 l-2.26 0 l0 2.26 c0 1.24 1.02 2.24 2.26 2.24 z M204.76899999999995 17.16 l0 2.84 l-0.58 0 l0 -2.84 c0 -1.26 -1.02 -2.26 -2.26 -2.26 s-2.26 1 -2.26 2.26 l0 2.84 l-0.58 0 l0 -14.3 l0.58 0 l0 9.72 c0.52 -0.68 1.34 -1.1 2.26 -1.1 c1.56 0 2.84 1.26 2.84 2.84 z M211.18849999999992 18.94 c0.88 0.68 2.16 0.62 2.98 -0.2 l0.4 0.42 c-1.1 1.1 -2.9 1.1 -4.02 0 c-1.1 -1.1 -1.1 -2.9 0 -4.02 c1.04 -1.04 2.7 -1.1 3.8 -0.2 l0.02 0 c0.2 0.2 0.2 0.2 0.42 0.4 z M210.96849999999992 15.559999999999999 c-0.8 0.8 -0.88 2.08 -0.2 2.96 l3.18 -3.16 c-0.88 -0.68 -2.16 -0.62 -2.98 0.2 z M231.2874999999999 14.32 l0 0.58 c-1.24 0 -2.26 1 -2.26 2.26 l0 2.26 l2.26 0 l0 0.58 l-2.26 0 l0 5.1 l-0.58 0 l0 -5.1 l-0.58 0 l0 -0.58 l0.58 0 l0 -2.36 c0.06 -1.52 1.3 -2.74 2.84 -2.74 z M239.06699999999992 14.32 l0 0.58 c-1.24 0 -2.26 1 -2.26 2.26 l0 2.84 l-0.58 0 l0 -5.68 l0.58 0 l0 1.1 c0.52 -0.68 1.34 -1.1 2.26 -1.1 z M246.04649999999992 14.9 c-1.24 0 -2.26 1 -2.26 2.26 c0 1.24 1.02 2.24 2.26 2.24 s2.26 -1 2.26 -2.24 c0 -1.26 -1.02 -2.26 -2.26 -2.26 z M246.04649999999992 14.32 c1.56 0 2.84 1.26 2.84 2.84 c0 1.56 -1.28 2.84 -2.84 2.84 c-1.58 0 -2.84 -1.28 -2.84 -2.84 c0 -1.58 1.26 -2.84 2.84 -2.84 z M259.5059999999999 17.16 l0 2.84 l-0.58 0 l0 -2.84 c0 -1.26 -1.02 -2.26 -2.26 -2.26 s-2.26 1 -2.26 2.26 l0 2.84 l-0.58 0 l0 -5.68 l0.58 0 l0 1.1 c0.52 -0.68 1.34 -1.1 2.26 -1.1 c1.56 0 2.84 1.26 2.84 2.84 z M267.2654999999999 19.4 l0 0.6 c-1.56 0 -2.84 -1.28 -2.84 -2.84 l0 -2.26 l-0.58 0 l0 -0.58 l0.58 0 l0 -8.62 l0.58 0 l0 8.62 l2.26 0 l0 0.58 l-2.26 0 l0 2.26 c0 1.24 1.02 2.24 2.26 2.24 z"/></g>
			</g>
		</svg>
	