<?xml version="1.0" encoding="UTF-8" standalone="no"?>
<svg
   version="1.1"
   width="1160.2271"
   height="1160.2271"
   viewBox="0 0 1160.2271 1160.2271"
   id="svg52"
   sodipodi:docname="logo-only.svg"
   inkscape:version="1.2.2 (b0a84865, 2022-12-01)"
   xmlns:inkscape="http://www.inkscape.org/namespaces/inkscape"
   xmlns:sodipodi="http://sodipodi.sourceforge.net/DTD/sodipodi-0.dtd"
   xmlns="http://www.w3.org/2000/svg"
   xmlns:svg="http://www.w3.org/2000/svg">
  <defs
     id="defs56">
    <defs
       id="SvgjsDefs11892" />
  </defs>
  <sodipodi:namedview
     id="namedview54"
     pagecolor="#ffffff"
     bordercolor="#666666"
     borderopacity="1.0"
     inkscape:showpageshadow="2"
     inkscape:pageopacity="0.0"
     inkscape:pagecheckerboard="0"
     inkscape:deskcolor="#d1d1d1"
     showgrid="false"
     inkscape:zoom="0.20340848"
     inkscape:cx="1629.7256"
     inkscape:cy="597.32023"
     inkscape:window-width="1297"
     inkscape:window-height="719"
     inkscape:window-x="941"
     inkscape:window-y="367"
     inkscape:window-maximized="0"
     inkscape:current-layer="svg52" />
  <rect
     fill="#185c31"
     width="1162.019"
     height="1160.2269"
     id="rect2"
     x="0"
     y="0"
     style="stroke-width:0.603784" />
  <g
     id="SvgjsG11893"
     featureKey="symbolFeature-0"
     transform="matrix(11.979395,0,0,11.979395,43.696624,47.279277)"
     fill="#79cb6a">
    <g
       id="g41">
      <path
         d="m 80.4,28.2 c 1.8,-2.8 2.4,-6.1 1.7,-9.3 -0.7,-3.2 -2.6,-6 -5.4,-7.8 -2.8,-1.8 -6.1,-2.4 -9.3,-1.7 -2.3,0.5 -4.3,1.6 -5.9,3.1 -0.3,0.2 -0.6,0.4 -0.8,0.7 -0.1,0.1 -0.1,0.2 -0.2,0.3 -0.3,0.4 -0.6,0.8 -0.9,1.2 -1.8,2.8 -2.4,6.1 -1.7,9.3 0,0 0,0 0,0 0,0 0,0 0,0 0.7,3.2 2.6,6 5.4,7.8 2,1.3 4.4,2 6.7,2 0.9,0 1.7,-0.1 2.6,-0.3 3.2,-0.6 6,-2.5 7.8,-5.3 z m -8.6,1.5 c -3.7,0.8 -7.3,-1 -9.1,-4.1 h 4.9 c 1.1,0 2,-0.9 2,-2 0,-1.1 -0.9,-2 -2,-2 h -6 c -0.1,-4 2.7,-7.5 6.7,-8.4 0.6,-0.1 1.2,-0.2 1.7,-0.2 1.9,0 3.7,0.6 5.1,1.8 h -3.2 c -1.1,0 -2,0.9 -2,2 0,1.1 0.9,2 2,2 h 5.8 c 0.1,0 0.2,0 0.2,0 0.1,0.3 0.2,0.6 0.3,0.9 0.2,1 0.2,2 0.1,3 h -1.8 c -1.1,0 -2,0.9 -2,2 0,1.1 0.9,2 2,2 h 0.1 c -1.2,1.5 -2.9,2.5 -4.8,3 z"
         id="path5" />
      <path
         d="m 37.2,26 c -14.6,0 -26.4,11.8 -26.4,26.4 0,5.5 1.7,10.7 4.7,15 0.1,0.1 0.1,0.2 0.2,0.2 4.8,6.8 12.7,11.2 21.6,11.2 C 51.9,78.8 63.7,67 63.7,52.4 63.7,37.8 51.8,26 37.2,26 Z M 59,46.9 c -0.2,0.5 -0.4,1 -0.5,1.4 -0.1,0.3 -0.2,0.6 -0.3,0.8 0,0.1 -0.1,0.2 -0.1,0.2 C 58,49.2 57.8,49.1 57.7,49 57,48.5 56,47.7 54.6,47.7 c -0.4,0 -0.7,0.1 -1,0.2 0,-0.6 0,-1.1 0,-1.7 -0.1,-1.9 -1,-2.8 -1.8,-3.2 -0.7,-0.4 -1.4,-0.4 -1.9,-0.4 -0.5,0 -1.1,0 -1.6,-0.1 l 4.5,-6.4 c 2.9,3 5.1,6.7 6.2,10.8 z m -44.1,3.3 c 1.1,-0.5 2.3,-0.8 3.6,-1 -1.8,2.3 -2.7,5.9 -0.8,8.6 0.1,0.1 0.2,0.3 0.3,0.4 0,0 0,0.1 0.1,0.1 L 18,58.4 c -0.5,0.7 -1,1.5 -1.6,2.5 -1.1,-2.6 -1.7,-5.5 -1.7,-8.5 0.1,-0.8 0.1,-1.5 0.2,-2.2 z m 4.3,15.5 c 0.2,-2.2 1.2,-3.7 2.1,-5 l 0.1,-0.2 c 0.3,-0.5 0.8,-1.3 0.8,-2.3 0,-1.2 -0.7,-2 -1.1,-2.5 -0.1,-0.1 -0.1,-0.2 -0.2,-0.3 -0.8,-1.1 -0.2,-2.8 0.8,-4 l 0.1,-0.1 c 0.5,-0.6 1.4,-1.6 1.3,-3.1 -0.1,-1.3 -1,-2.5 -2.4,-3 -0.9,-0.3 -1.8,-0.3 -2.6,-0.2 -0.8,0.1 -1.5,0.3 -2.3,0.5 C 18.7,36.6 27.2,30 37.2,30 c 0,0 0.1,0 0.1,0 0.3,0.8 0.8,1.6 1.3,2.2 0.4,0.6 0.8,1.2 0.8,1.5 0,0.7 -2,1.3 -3,1.7 h -0.1 c -1.9,0.7 -3.7,1.7 -5.3,2.9 -1,0.7 -2.1,1.7 -2.6,3.2 -0.8,2.5 0.7,4.7 1.8,6.3 l 0.1,0.2 c 0.8,1.2 1,2.2 0.8,2.5 -0.2,0.2 -0.9,0.4 -3.1,-0.3 -1.1,-0.4 -2.4,0 -3.2,0.9 -1,1.1 -1.3,2.8 -0.8,4.3 0.6,1.6 2.4,3.5 7.3,3.9 0.1,0.1 0.2,0.3 0.2,0.5 -0.1,0.2 -0.6,0.7 -1,1 -0.8,0.7 -1.8,1.6 -2.2,2.9 -0.2,0.7 0,1.6 0.5,2.1 2.5,2.3 5.9,1 8.6,-0.1 0.9,-0.3 2.3,-0.9 3.1,-1 -0.2,1.1 -0.6,2.2 -1.2,3.1 l -0.2,0.3 c -0.5,0.7 -1.1,1.5 -1.2,2.6 -0.2,1.4 0.3,2.8 1.3,3.9 -0.7,0.1 -1.3,0.1 -2,0.1 -7.4,0.1 -13.9,-3.5 -18,-9 z m 26.6,7.4 C 43.5,73.1 43,72.7 42.5,72.2 42.1,71.9 42,71.6 42,71.4 c 0,-0.2 0.3,-0.6 0.6,-1 L 42.9,70 c 1.3,-1.9 2,-4.1 2,-6.4 0,-0.4 -0.1,-0.8 -0.3,-1.1 -2,-3.1 -5.6,-1.7 -8.3,-0.7 -0.5,0.2 -1.2,0.4 -1.8,0.6 0.6,-0.8 1.2,-1.7 1.1,-3 -0.1,-2 -1.6,-4.2 -3.9,-4.3 -1.9,-0.1 -2.9,-0.5 -3.4,-0.8 1.8,0.4 4.3,0.6 5.9,-1.3 1.5,-1.8 1.4,-4.5 -0.5,-7.3 l -0.1,-0.2 c -0.7,-1.1 -1.5,-2.2 -1.3,-3 0.1,-0.4 0.7,-0.9 1.1,-1.2 1.3,-1 2.7,-1.8 4.2,-2.3 h 0.1 c 2.1,-0.8 5.4,-1.9 5.6,-5.2 0.1,-1.4 -0.4,-2.5 -1,-3.4 2.6,0.6 5.1,1.7 7.3,3.1 l -4.7,6.6 c -1.7,2.4 -1.2,4.3 -0.1,5.2 0.6,0.6 1.3,0.8 1.9,0.9 0.9,0.2 1.8,0.3 2.8,0.3 0.1,1.1 -0.1,2.2 -0.4,3.3 -0.2,0.7 -0.1,1.4 0.4,1.9 1,1.2 2.8,1.4 4.4,0.5 0.2,-0.1 0.3,-0.2 0.5,-0.3 0.1,-0.1 0.2,-0.2 0.3,-0.2 0.1,0.1 0.3,0.2 0.5,0.4 0.7,0.5 1.6,1.3 3,1.3 0,0 0,0 0,0 0.5,0 1.1,-0.1 1.5,-0.4 -0.4,9.1 -6,16.8 -13.9,20.1 z"
         id="path7" />
      <path
         d="m 7.4,15.2 c 0,0 -0.1,0 0,0 -0.9,0.7 -1,2 -0.3,2.8 0.4,0.5 1,0.7 1.5,0.7 0.5,0 0.9,-0.2 1.3,-0.5 0.9,-0.7 1,-1.9 0.3,-2.8 -0.7,-0.8 -2,-0.9 -2.8,-0.2 z"
         id="path9" />
      <path
         d="m 21,11.7 c 0.2,0 0.5,0 0.7,-0.1 h 0.1 C 22.8,11.2 23.4,10.1 23,9 22.6,8 21.5,7.4 20.4,7.8 l -0.1,0.1 c -1,0.4 -1.5,1.6 -1.1,2.6 0.2,0.7 1,1.2 1.8,1.2 z"
         id="path11" />
      <path
         d="m 48.8,10.3 c 0.2,0 0.4,0.1 0.5,0.1 0.9,0 1.7,-0.6 1.9,-1.5 0.3,-1.1 -0.3,-2.2 -1.4,-2.5 h -0.1 c -1.1,-0.3 -2.2,0.3 -2.5,1.4 -0.3,1.1 0.3,2.2 1.4,2.5 z"
         id="path13" />
      <path
         d="m 42.1,9 c 0.1,0 0.1,0 0.2,0 1,0 1.9,-0.8 2,-1.8 C 44.4,6.1 43.6,5.1 42.5,5 H 42.4 C 41.3,4.9 40.3,5.7 40.2,6.8 40.1,7.9 40.9,8.9 42,9 Z"
         id="path15" />
      <path
         d="m 14.5,14.7 c 0.4,0 0.7,-0.1 1,-0.3 1,-0.5 1.3,-1.8 0.8,-2.7 -0.5,-1 -1.8,-1.3 -2.7,-0.8 L 13.5,11 c -1,0.6 -1.2,1.8 -0.7,2.7 0.4,0.7 1,1 1.7,1 z"
         id="path17" />
      <path
         d="m 56.1,12.8 c 0.8,0 1.5,-0.4 1.8,-1.2 0.5,-1 0,-2.2 -1,-2.7 L 56.8,8.8 c -1,-0.5 -2.1,0 -2.6,1 -0.5,1 0,2.2 1.1,2.7 0.2,0.2 0.5,0.3 0.8,0.3 z"
         id="path19" />
      <path
         d="m 27.9,9.6 c 0.1,0 0.3,0 0.4,0 C 29.4,9.4 30.1,8.3 29.9,7.3 29.7,6.2 28.6,5.5 27.6,5.7 H 27.4 C 26.3,5.9 25.7,7 25.9,8.1 26.1,9 27,9.6 27.9,9.6 Z"
         id="path21" />
      <path
         d="m 35.1,8.7 h 0.1 c 1.1,-0.1 2,-1 1.9,-2.1 C 37,5.5 36.1,4.7 35,4.7 h -0.1 c -1.1,0.1 -2,1 -1.9,2.1 0,1.1 0.9,1.9 2.1,1.9 -0.1,0 0,0 0,0 z"
         id="path23" />
      <path
         d="M 76,76.5 C 75.1,75.9 73.8,76.1 73.2,77 l -0.1,0.1 c -0.6,0.9 -0.4,2.2 0.5,2.8 0.3,0.2 0.7,0.4 1.1,0.4 0.6,0 1.3,-0.3 1.6,-0.9 l 0.1,-0.1 c 0.8,-0.9 0.5,-2.1 -0.4,-2.8 z"
         id="path25" />
      <path
         d="m 79.4,70.1 c -1,-0.5 -2.2,0 -2.7,1 -0.5,1 -0.1,2.2 0.9,2.7 0.3,0.1 0.6,0.2 0.9,0.2 0.7,0 1.4,-0.4 1.8,-1.1 l 0.1,-0.2 c 0.4,-1 0,-2.2 -1,-2.6 z"
         id="path27" />
      <path
         d="m 81.7,63.1 c -1.1,-0.3 -2.2,0.3 -2.5,1.4 v 0.1 c -0.3,1.1 0.3,2.2 1.4,2.5 0.2,0.1 0.4,0.1 0.6,0.1 0.9,0 1.7,-0.6 1.9,-1.5 v -0.1 c 0.3,-1.1 -0.4,-2.2 -1.4,-2.5 z"
         id="path29" />
      <path
         d="m 82.8,55.9 c -1.1,-0.1 -2.1,0.7 -2.2,1.8 v 0.1 c -0.1,1.1 0.7,2.1 1.8,2.2 0.1,0 0.2,0 0.2,0 1,0 1.9,-0.7 2,-1.8 V 58.1 C 84.7,57 83.9,56 82.8,55.9 Z"
         id="path31" />
      <path
         d="m 82.8,48.6 c -1.1,0.1 -2,1 -1.9,2.1 0,1.1 0.9,2 2,2 0,0 0,0 0,0 1.1,0 2,-0.9 2,-2 v -0.2 c -0.1,-1.1 -1.1,-2 -2.1,-1.9 z"
         id="path33" />
      <path
         d="m 81.9,35.7 v -0.1 c -0.4,-1 -1.5,-1.6 -2.6,-1.2 -1,0.4 -1.6,1.5 -1.2,2.6 v 0.1 c 0.3,0.8 1.1,1.3 1.9,1.3 0.2,0 0.5,0 0.7,-0.1 1.1,-0.4 1.6,-1.6 1.2,-2.6 z"
         id="path35" />
      <path
         d="m 68.8,82.5 v 0 c -0.8,0.9 -0.8,2.1 0,2.9 0.4,0.4 0.9,0.5 1.4,0.5 0.5,0 1.1,-0.2 1.5,-0.6 0,0 0.1,-0.1 0.1,-0.1 0.8,-0.8 0.7,-2.1 -0.1,-2.8 -0.8,-0.8 -2.1,-0.7 -2.9,0.1 z"
         id="path37" />
      <path
         d="m 80.1,43.8 c 0.2,0.9 1,1.6 2,1.6 0.1,0 0.3,0 0.4,0 1.1,-0.2 1.8,-1.3 1.5,-2.4 v -0.1 c -0.2,-1.1 -1.3,-1.8 -2.3,-1.6 -1.1,0.2 -1.8,1.3 -1.6,2.3 z"
         id="path39" />
    </g>
  </g>
</svg>
